<svg enable-background="new 0 0 28.3 28.3" viewBox="0 0 28.3 28.3" xmlns="http://www.w3.org/2000/svg">
  <style>
    path { fill: #1981AF; }
    #bg { fill: #ffffff; }
    @media (prefers-color-scheme: dark) {
      path { fill: #ffffff; }
      #bg { fill: #1981AF; }
    }
  </style>
  <rect stroke-width="0" y="0" x="0" height="28.3px" width="28.3px" id="bg" visibility="visible"></rect>
  <path d="m23.5 8.3h-4.4c.5-.3 1-.6 1.4-.9 1.7-1.6 2-3.9.7-5.2-.6-.5-1.3-.8-2.2-.8-1.1 0-2.4.5-3.4 1.4-.6.5-1.1 1.3-1.4 2-.4-.7-.9-1.5-1.4-2-1-.9-2.3-1.4-3.4-1.4-.8 0-1.6.3-2.2.8-1.3 1.3-1 3.6.7 5.2.4.3.8.6 1.3.9h-4.3c-1 0-1.9.8-1.9 1.9v14.9c0 1 .8 1.9 1.9 1.9h18.6c1 0 1.9-.8 1.9-1.9v-14.9c-.1-1-.9-1.9-1.9-1.9m-6.6-4.1c.6-.6 1.4-.9 2.1-.9.2 0 .6 0 .9.3.1.1.2.2.2.6s-.2 1.2-.9 1.8c-.9.8-2.2 1.4-3.2 1.4-.3 0-.4-.1-.4-.1-.3-.4.1-2 1.3-3.1m-7.7 1.8c-.7-.6-1-1.4-1-1.8s.2-.6.2-.6c.3-.2.6-.3.9-.3.7 0 1.5.3 2.1.9 1.2 1.1 1.6 2.7 1.4 3 0 0-.1.1-.5.1-.9.1-2.3-.5-3.1-1.3m12.5 9.3-3.2.5v-2.5h-8.6v8.4h8.6v-2.9l3.2.6v1.6c0 2.5-.8 3.1-3.4 3.1h-8.2c-2.6 0-3.4-.6-3.4-3.1v-7c0-2.5.8-3.1 3.4-3.1h8.2c2.6 0 3.4.6 3.4 3.1z"/>
</svg>
